<?xml version="1.0" encoding="UTF-8" standalone="no"?>
<svg
   xmlns:dc="http://purl.org/dc/elements/1.1/"
   xmlns:cc="http://creativecommons.org/ns#"
   xmlns:rdf="http://www.w3.org/1999/02/22-rdf-syntax-ns#"
   xmlns:svg="http://www.w3.org/2000/svg"
   xmlns="http://www.w3.org/2000/svg"
   viewBox="0 0 699.57147 627.58801"
   height="627.58801"
   width="699.57147"
   xml:space="preserve"
   version="1.1"
   id="svg3355"><metadata
     id="metadata3361"><rdf:RDF><cc:Work
         rdf:about=""><dc:format>image/svg+xml</dc:format><dc:type
           rdf:resource="http://purl.org/dc/dcmitype/StillImage" /><dc:title></dc:title></cc:Work></rdf:RDF></metadata><defs
     id="defs3359"><clipPath
       id="clipPath3389"
       clipPathUnits="userSpaceOnUse"><path
         id="path3391"
         d="m 482,301 15,0 0,7 -15,0 0,-7 z" /></clipPath><clipPath
       id="clipPath3479"
       clipPathUnits="userSpaceOnUse"><path
         id="path3481"
         d="m 454,297 83,0 0,14 -83,0 0,-14 z" /></clipPath><clipPath
       id="clipPath3503"
       clipPathUnits="userSpaceOnUse"><path
         id="path3505"
         d="m 335,209 223,0 0,294 -223,0 0,-294 z" /></clipPath><clipPath
       id="clipPath3527"
       clipPathUnits="userSpaceOnUse"><path
         id="path3529"
         d="m 0,207 310,0 0,294 -310,0 0,-294 z" /></clipPath><clipPath
       id="clipPath3581"
       clipPathUnits="userSpaceOnUse"><path
         id="path3583"
         d="m 42,405 71,0 0,20 -71,0 0,-20 z" /></clipPath><clipPath
       id="clipPath3633"
       clipPathUnits="userSpaceOnUse"><path
         id="path3635"
         d="m 202,317 71,0 0,20 -71,0 0,-20 z" /></clipPath><clipPath
       id="clipPath3661"
       clipPathUnits="userSpaceOnUse"><path
         id="path3663"
         d="m 202,231 71,0 0,20 -71,0 0,-20 z" /></clipPath><clipPath
       id="clipPath3689"
       clipPathUnits="userSpaceOnUse"><path
         id="path3691"
         d="m 297,0 263,0 0,194 -263,0 0,-194 z" /></clipPath><clipPath
       id="clipPath3725"
       clipPathUnits="userSpaceOnUse"><path
         id="path3727"
         d="m 350,235 73,0 0,62 -73,0 0,-62 z" /></clipPath><clipPath
       id="clipPath3753"
       clipPathUnits="userSpaceOnUse"><path
         id="path3755"
         d="m 419,81 130,0 0,16 -130,0 0,-16 z" /></clipPath><clipPath
       id="clipPath3821"
       clipPathUnits="userSpaceOnUse"><path
         id="path3823"
         d="m 419,52 129,0 0,16 -129,0 0,-16 z" /></clipPath></defs><g
     transform="matrix(1.25,0,0,-1.25,0,627.58804)"
     id="g3363"><g
       id="g3365"><g
         transform="matrix(1,0,0,-1,0,502.07043)"
         id="g3367"><path
           id="path3369"
           style="fill:none;stroke:#000000;stroke-width:1.21121001;stroke-linecap:round;stroke-linejoin:miter;stroke-miterlimit:4;stroke-dasharray:none;stroke-opacity:1"
           d="m 348.66,171.457 189.699,0 0,103.027 -189.699,0 0,-103.027 z" /></g><text
         id="text3371"
         style="font-variant:normal;font-weight:normal;font-size:16px;font-family:'DejaVu Sans';-inkscape-font-specification:DejaVuSans;writing-mode:lr-tb;fill:#000000;fill-opacity:1;fill-rule:nonzero;stroke:none"
         transform="matrix(1,0,0,-1,413.69951,314.88869)"><tspan
           id="tspan3373"
           y="0"
           x="0 10.96 23.280001 33.119999 41.903999 51.68 61.824001">XDecode</tspan></text>
<g
         transform="matrix(1,0,0,-1,0,502.07043)"
         id="g3375"><path
           id="path3377"
           style="fill:none;stroke:#000000;stroke-width:0.85680699;stroke-linecap:butt;stroke-linejoin:miter;stroke-miterlimit:4;stroke-dasharray:none;stroke-opacity:1"
           d="m 348.453,191.855 189.102,0" /></g><text
         id="text3379"
         style="font-variant:normal;font-weight:normal;font-size:10px;font-family:'DejaVu Sans';-inkscape-font-specification:DejaVuSans;writing-mode:lr-tb;fill:#000000;fill-opacity:1;fill-rule:nonzero;stroke:none"
         transform="matrix(1,0,0,-1,353.3023,284.16483)"><tspan
           id="tspan3381"
           y="0"
           x="0 6.8400002 14.54 22.24 27.24 34.080002 40.110001 46.139999 53.080002 60.299999 67.150002 92.540001 98.110001 101.05 107.39 113.49 117.39 120.56 123.76 126.93 130.10001 133.27 140.75 143.92 147.09 154.57001">ADD_APPROX LIST(..., N, N)</tspan></text>
<g
         transform="translate(0,-0.929565)"
         id="g3383"><g
           id="g3385"><g
             clip-path="url(#clipPath3389)"
             id="g3387"><g
               id="g3393"><text
                 id="text3395"
                 style="font-variant:normal;font-weight:normal;font-size:8px;font-family:'DejaVu Sans';-inkscape-font-specification:DejaVuSans;writing-mode:lr-tb;fill:#000000;fill-opacity:1;fill-rule:nonzero;stroke:none"
                 transform="matrix(1,0,0,-1,482.0676,301.75571)"><tspan
                   id="tspan3397"
                   y="0"
                   x="0 2.2160001 7.2800002 10.416">luts</tspan></text>
</g></g></g></g><text
         id="text3399"
         style="font-variant:normal;font-weight:normal;font-size:8px;font-family:'DejaVu Sans';-inkscape-font-specification:DejaVuSans;writing-mode:lr-tb;fill:#000000;fill-opacity:1;fill-rule:nonzero;stroke:none"
         transform="matrix(1,0,0,-1,500.47827,301.14831)"><tspan
           id="tspan3401"
           y="0"
           x="0 5.072 8.1920004 13.112 17.504 19.719999 23.879999">precise</tspan></text>
<g
         transform="matrix(1,0,0,-1,0,502.07043)"
         id="g3403"><path
           id="path3405"
           style="fill:none;stroke:#000000;stroke-width:0.80000001;stroke-linecap:butt;stroke-linejoin:miter;stroke-miterlimit:4;stroke-dasharray:none;stroke-opacity:1"
           d="m 490.078,201.555 0,8.285" /></g><g
         transform="matrix(1,0,0,-1,0,502.07043)"
         id="g3407"><path
           id="path3409"
           style="fill:none;stroke:#000000;stroke-width:0.80000001;stroke-linecap:butt;stroke-linejoin:miter;stroke-miterlimit:4;stroke-dasharray:none;stroke-opacity:1"
           d="m 505.277,201.758 0,8.484" /></g><text
         id="text3411"
         style="font-variant:normal;font-weight:normal;font-size:10px;font-family:'DejaVu Sans';-inkscape-font-specification:DejaVuSans;writing-mode:lr-tb;fill:#000000;fill-opacity:1;fill-rule:nonzero;stroke:none"
         transform="matrix(1,0,0,-1,353.30245,268.40435)"><tspan
           id="tspan3413"
           y="0"
           x="0 6.3400002 13.65 20.51 25.51 32.349998 38.380001 44.41 51.349998 58.59 65.440002 90.830002 96.400002 99.339996 105.68 111.78 115.68 118.85 122.02 125.22 128.39 131.56 139.03999 142.21001 145.38 152.86">SUB_APPROX LIST(..., N, N)</tspan><tspan
           id="tspan3415"
           y="15.28499"
           x="-0.00025464001 6.3397455 13.649745 20.509745 90.339745 95.909744 98.849747 105.18974 111.28975 115.18974 118.38975 121.55975 124.72974 127.89974 131.06975 138.54974 141.71974 144.91974 151.01974">SUB LIST(..., N, Y)</tspan><tspan
           id="tspan3417"
           y="27.78499"
           x="-0.00025464001 3.1697454 6.3397455 9.5097456">....</tspan></text>
<g
         transform="matrix(1,0,0,-1,0,502.07043)"
         id="g3419"><path
           id="path3421"
           style="fill:none;stroke:#000000;stroke-width:0.80000001;stroke-linecap:butt;stroke-linejoin:miter;stroke-miterlimit:4;stroke-dasharray:none;stroke-opacity:1"
           d="m 472.973,201.555 0,8.285" /></g><text
         id="text3423"
         style="font-variant:normal;font-weight:normal;font-size:10px;font-family:'DejaVu Sans';-inkscape-font-specification:DejaVuSans;writing-mode:lr-tb;fill:#000000;fill-opacity:1;fill-rule:nonzero;stroke:none"
         transform="matrix(1,0,0,-1,467.25647,301.93153)"><tspan
           id="tspan3425"
           y="0"
           x="0 3.1700001 6.3400002">...</tspan></text>
<g
         transform="matrix(1,0,0,-1,0,502.07043)"
         id="g3427"><path
           id="path3429"
           style="fill:none;stroke:#000000;stroke-width:0.87062001;stroke-linecap:butt;stroke-linejoin:miter;stroke-miterlimit:4;stroke-dasharray:none;stroke-opacity:1"
           d="m 424.973,214.457 20.3,0" /></g><g
         transform="matrix(-1,0,0,1,0,502.07043)"
         id="g3431"><path
           id="path3433"
           style="fill:#000000;fill-opacity:1;fill-rule:evenodd;stroke:#000000;stroke-width:0.87062001;stroke-linecap:butt;stroke-linejoin:miter;stroke-miterlimit:4;stroke-dasharray:none;stroke-opacity:1"
           d="m -436.566,-214.457 3.48,-3.484 -12.187,3.484 12.187,3.48 -3.48,-3.48 z" /></g><g
         transform="matrix(1,0,0,-1,0,502.07043)"
         id="g3435"><path
           id="path3437"
           style="fill:none;stroke:#000000;stroke-width:0.809457;stroke-linecap:butt;stroke-linejoin:miter;stroke-miterlimit:4;stroke-dasharray:none;stroke-opacity:1"
           d="m 420.113,229.312 23.11,0" /></g><g
         transform="matrix(-1,0,0,1,0,502.07043)"
         id="g3439"><path
           id="path3441"
           style="fill:#000000;fill-opacity:1;fill-rule:evenodd;stroke:#000000;stroke-width:0.809457;stroke-linecap:butt;stroke-linejoin:miter;stroke-miterlimit:4;stroke-dasharray:none;stroke-opacity:1"
           d="m -435.129,-229.312 3.238,-3.239 -11.332,3.239 11.332,3.234 -3.238,-3.234 z" /></g><g
         transform="matrix(1,0,0,-1,0,502.07043)"
         id="g3443"><path
           id="path3445"
           style="fill:none;stroke:#000000;stroke-width:0.80868298;stroke-linecap:butt;stroke-linejoin:miter;stroke-miterlimit:4;stroke-dasharray:none;stroke-opacity:1"
           d="m 376.398,245.027 65.399,0" /></g><g
         transform="matrix(-1,0,0,1,0,502.07043)"
         id="g3447"><path
           id="path3449"
           style="fill:#000000;fill-opacity:1;fill-rule:evenodd;stroke:#000000;stroke-width:0.80868298;stroke-linecap:butt;stroke-linejoin:miter;stroke-miterlimit:4;stroke-dasharray:none;stroke-opacity:1"
           d="m -433.711,-245.027 3.234,-3.235 -11.32,3.235 11.32,3.234 -3.234,-3.234 z" /></g><g
         transform="matrix(1,0,0,-1,0,502.07043)"
         id="g3451"><path
           id="path3453"
           style="fill:none;stroke:#000000;stroke-width:0.90653002;stroke-linecap:round;stroke-linejoin:miter;stroke-miterlimit:4;stroke-dasharray:none;stroke-opacity:1"
           d="m 431.207,48.695 105.98,0 0,103.305 -105.98,0 0,-103.305 z" /></g><text
         id="text3455"
         style="font-variant:normal;font-weight:normal;font-size:16px;font-family:'DejaVu Sans';-inkscape-font-specification:DejaVuSans;writing-mode:lr-tb;fill:#000000;fill-opacity:1;fill-rule:nonzero;stroke:none"
         transform="matrix(1,0,0,-1,443.61068,439.11002)"><tspan
           id="tspan3457"
           y="0"
           x="0 4.704 14.832 21.104 32.271999 38.591999 45.167999 49.599998 59.743999 64.176003 74.32">IntCtrlSigs</tspan></text>
<g
         transform="matrix(1,0,0,-1,0,502.07043)"
         id="g3459"><path
           id="path3461"
           style="fill:none;stroke:#000000;stroke-width:0.641276;stroke-linecap:butt;stroke-linejoin:miter;stroke-miterlimit:4;stroke-dasharray:none;stroke-opacity:1"
           d="m 431.094,69.152 105.644,0" /></g><text
         id="text3463"
         style="font-variant:normal;font-weight:normal;font-size:12px;font-family:'DejaVu Sans';-inkscape-font-specification:DejaVuSans;writing-mode:lr-tb;fill:#000000;fill-opacity:1;fill-rule:nonzero;stroke:none"
         transform="matrix(1,0,0,-1,438.13511,416.4282)"><tspan
           id="tspan3465"
           y="0"
           x="0 3.8039999 7.6079998">...</tspan><tspan
           id="tspan3467"
           y="15"
           x="0 3.3239999 10.92 15.624 18.948 22.752001 32.796001 36.599998 44.832001 52.164001 59.495998 62.82 67.5">lutl = Bool()</tspan><tspan
           id="tspan3469"
           y="30"
           x="0 3.3239999 10.92 15.624 21.864 25.667999 35.712002 39.515999 47.748001 55.080002 62.411999 65.736 70.416">luts = Bool()</tspan><tspan
           id="tspan3471"
           y="45"
           x="0 7.6079998 12.288 19.667999 26.256001 29.58 35.82 43.200001 47.004002 57.048 60.852001 69.084 76.416 83.748001 87.071999 91.751999">precise = Bool()</tspan></text>
<g
         transform="translate(0,-0.929565)"
         id="g3473"><g
           id="g3475"><g
             clip-path="url(#clipPath3479)"
             id="g3477"><g
               id="g3483"><g
                 transform="matrix(1,0,0,-1,0,503)"
                 id="g3485"><path
                   id="path3487"
                   style="fill:none;stroke:#000000;stroke-width:0.80000001;stroke-linecap:round;stroke-linejoin:miter;stroke-miterlimit:4;stroke-dasharray:0.8, 1.6;stroke-dashoffset:0;stroke-opacity:1"
                   d="m 454.723,193.105 81.621,0 0,12.121 -81.621,0 0,-12.121 z" /></g></g></g></g></g><g
         transform="matrix(1,0,0,-1,0,502.07043)"
         id="g3489"><path
           id="path3491"
           style="fill:none;stroke:#000000;stroke-width:0.80000001;stroke-linecap:butt;stroke-linejoin:miter;stroke-miterlimit:4;stroke-dasharray:none;stroke-opacity:1"
           d="m 530.914,198.809 20.016,0 0,-108.723 -13.559,0" /></g><g
         transform="matrix(1,0,0,-1,0,502.07043)"
         id="g3493"><path
           id="path3495"
           style="fill:#000000;fill-opacity:1;fill-rule:evenodd;stroke:#000000;stroke-width:0.80000001;stroke-linecap:butt;stroke-linejoin:miter;stroke-miterlimit:4;stroke-dasharray:none;stroke-opacity:1"
           d="m 545.371,90.086 3.199,-3.199 -11.199,3.199 11.199,3.199 -3.199,-3.199 z" /></g><g
         transform="translate(0,-0.929565)"
         id="g3497"><g
           id="g3499"><g
             clip-path="url(#clipPath3503)"
             id="g3501"><g
               id="g3507"><g
                 transform="matrix(1,0,0,-1,0,503)"
                 id="g3509"><path
                   id="path3511"
                   style="fill:none;stroke:#000000;stroke-width:0.736516;stroke-linecap:round;stroke-linejoin:miter;stroke-miterlimit:4;stroke-dasharray:none;stroke-opacity:1"
                   d="m 335.797,0.367 221.777,0 0,292.637 -221.777,0 0,-292.637 z" /></g></g></g></g></g><g
         transform="matrix(1,0,0,-1,0,502.07043)"
         id="g3513"><path
           id="path3515"
           style="fill:none;stroke:#000000;stroke-width:0.73794401;stroke-linecap:butt;stroke-linejoin:miter;stroke-miterlimit:4;stroke-dasharray:none;stroke-opacity:1"
           d="m 334.688,30.113 221.71,0" /></g><text
         y="-480.59326"
         x="383.02887"
         id="text3517"
         style="font-variant:normal;font-weight:normal;font-size:20px;font-family:'DejaVu Sans';-inkscape-font-specification:DejaVuSans;writing-mode:lr-tb;fill:#000000;fill-opacity:1;fill-rule:nonzero;stroke:none"
         transform="scale(1,-1)"><tspan
           id="tspan3519"
           y="-480.59326"
           x="383.02887 388.56885 401.24887 413.54886 424.52887 436.74887 449.42886 461.72885 468.06885 478.46887 489.44885 501.68887 507.22885">idecode.scala</tspan></text>
<g
         transform="translate(0,-0.929565)"
         id="g3521"><g
           id="g3523"><g
             clip-path="url(#clipPath3527)"
             id="g3525"><g
               id="g3531"><g
                 transform="matrix(1,0,0,-1,0,503)"
                 id="g3533"><path
                   id="path3535"
                   style="fill:none;stroke:#000000;stroke-width:0.86927199;stroke-linecap:round;stroke-linejoin:miter;stroke-miterlimit:4;stroke-dasharray:none;stroke-opacity:1"
                   d="m 0.434,2.719 309.074,0 0,292.504 -309.074,0 0,-292.504 z" /></g></g></g></g></g><g
         transform="matrix(1,0,0,-1,0,502.07043)"
         id="g3537"><path
           id="path3539"
           style="fill:none;stroke:#000000;stroke-width:0.80000007;stroke-linecap:butt;stroke-linejoin:miter;stroke-miterlimit:4;stroke-dasharray:none;stroke-opacity:1"
           d="m 0.398,32.398 309.71113,0" /></g><text
         y="-478.53433"
         x="99.275955"
         id="text3541"
         style="font-variant:normal;font-weight:normal;font-size:20px;font-family:'DejaVu Sans';-inkscape-font-specification:DejaVuSans;writing-mode:lr-tb;fill:#000000;fill-opacity:1;fill-rule:nonzero;stroke:none"
         transform="scale(1,-1)"><tspan
           id="tspan3543"
           y="-478.53433"
           x="99.275955 107.07595 119.29595 130.27599 141.19601 153.49606 161.33607 167.67607 178.07607 189.05606 201.35606 206.89607">rocket.scala</tspan></text>
<g
         transform="matrix(1,0,0,-1,0,502.07043)"
         id="g3545"><path
           id="path3547"
           style="fill:none;stroke:#000000;stroke-width:1.73854399;stroke-linecap:butt;stroke-linejoin:miter;stroke-miterlimit:4;stroke-dasharray:1.738544, 5.215633;stroke-dashoffset:0;stroke-opacity:1"
           d="m 15.375,86.609 273.902,0" /></g><g
         transform="matrix(1,0,0,-1,0,502.07043)"
         id="g3549"><path
           id="path3551"
           style="fill:none;stroke:#000000;stroke-width:1.73854399;stroke-linecap:butt;stroke-linejoin:miter;stroke-miterlimit:4;stroke-dasharray:1.738544, 5.215633;stroke-dashoffset:0;stroke-opacity:1"
           d="m 15.375,175.25 273.902,0" /></g><g
         transform="matrix(1,0,0,-1,0,502.07043)"
         id="g3553"><path
           id="path3555"
           style="fill:none;stroke:#000000;stroke-width:1.73854399;stroke-linecap:butt;stroke-linejoin:miter;stroke-miterlimit:4;stroke-dasharray:1.738544, 5.215633;stroke-dashoffset:0;stroke-opacity:1"
           d="m 15.375,262.176 273.902,0" /></g><text
         id="text3557"
         style="font-variant:normal;font-weight:normal;font-size:12px;font-family:'DejaVu Sans';-inkscape-font-specification:DejaVuSans;writing-mode:lr-tb;fill:#000000;fill-opacity:1;fill-rule:nonzero;stroke:none"
         transform="matrix(0,-1,-1,0,293.4897,403.01297)"><tspan
           id="tspan3559"
           y="0"
           x="0 7.6079998 14.988 21.576 28.908001 36.515999">decode</tspan><tspan
           id="tspan3561"
           y="1.8663239"
           x="88.897324 96.061317 102.78132 110.16132 116.74932 124.34532 129.08533">execute</tspan></text>
<g
         transform="matrix(1,0,0,-1,0,502.07043)"
         id="g3563"><path
           id="path3565"
           style="fill:none;stroke:#000000;stroke-width:0.384597;stroke-linecap:round;stroke-linejoin:miter;stroke-miterlimit:4;stroke-dasharray:none;stroke-opacity:1"
           d="m 215.719,110.086 44.965,0 0,43.828 -44.965,0 0,-43.828 z" /></g><text
         id="text3567"
         style="font-variant:normal;font-weight:normal;font-size:6.78803396px;font-family:'DejaVu Sans';-inkscape-font-specification:DejaVuSans;writing-mode:lr-tb;fill:#000000;fill-opacity:1;fill-rule:nonzero;stroke:none"
         transform="matrix(1,0,0,-1,220.98226,385.93251)"><tspan
           id="tspan3569"
           y="0"
           x="0 1.995682 6.2925076 8.9534168 13.691464 16.372738 19.162621 21.042906 25.346519 27.226805 31.530418">IntCtrlSigs</tspan></text>
<g
         transform="matrix(1,0,0,-1,0,502.07043)"
         id="g3571"><path
           id="path3573"
           style="fill:none;stroke:#000000;stroke-width:0.27206299;stroke-linecap:butt;stroke-linejoin:miter;stroke-miterlimit:4;stroke-dasharray:none;stroke-opacity:1"
           d="m 215.672,118.766 44.82,0" /></g><g
         transform="translate(0,-0.929565)"
         id="g3575"><g
           id="g3577"><g
             clip-path="url(#clipPath3581)"
             id="g3579"><g
               id="g3585"><g
                 transform="matrix(1,0,0,-1,0,503)"
                 id="g3587"><path
                   id="path3589"
                   style="fill:#ffffff;fill-opacity:1;fill-rule:nonzero;stroke:#000000;stroke-width:0.80000001;stroke-linecap:round;stroke-linejoin:miter;stroke-miterlimit:4;stroke-dasharray:none;stroke-opacity:1"
                   d="m 43.348,79.121 68.961,0 0,17.531 -68.961,0 0,-17.531 z" /></g></g></g></g></g><text
         id="text3591"
         style="font-variant:normal;font-weight:normal;font-size:12px;font-family:'DejaVu Sans';-inkscape-font-specification:DejaVuSans;writing-mode:lr-tb;fill:#000000;fill-opacity:1;fill-rule:nonzero;stroke:none"
         transform="matrix(1,0,0,-1,46.114507,409.93847)"><tspan
           id="tspan3593"
           y="0"
           x="0 3.5280001 11.124 17.364 22.068001 27.035999 34.632 41.220001 45.924 49.248001 56.580002">Instruction</tspan></text>
<g
         transform="matrix(1,0,0,-1,0,502.07043)"
         id="g3595"><path
           id="path3597"
           style="fill:none;stroke:#000000;stroke-width:0.80000001;stroke-linecap:butt;stroke-linejoin:miter;stroke-miterlimit:4;stroke-dasharray:none;stroke-opacity:1"
           d="m 78.137,96.535 0,22.434" /></g><g
         transform="matrix(0,1,1,0,0,502.07043)"
         id="g3599"><path
           id="path3601"
           style="fill:#000000;fill-opacity:1;fill-rule:evenodd;stroke:#000000;stroke-width:0.80000001;stroke-linecap:butt;stroke-linejoin:miter;stroke-miterlimit:4;stroke-dasharray:none;stroke-opacity:1"
           d="m -110.969,78.137 3.203,-3.199 -11.203,3.199 11.203,3.199 -3.203,-3.199 z" /></g><g
         transform="matrix(1,0,0,-1,0,502.07043)"
         id="g3603"><path
           id="path3605"
           style="fill:none;stroke:#000000;stroke-width:0.388836;stroke-linecap:round;stroke-linejoin:miter;stroke-miterlimit:4;stroke-dasharray:none;stroke-opacity:1"
           d="m 126.852,110.766 48.242,0 0,41.75 -48.242,0 0,-41.75 z" /></g><text
         id="text3607"
         style="font-variant:normal;font-weight:normal;font-size:6.46974087px;font-family:'DejaVu Sans';-inkscape-font-specification:DejaVuSans;writing-mode:lr-tb;fill:#000000;fill-opacity:1;fill-rule:nonzero;stroke:none"
         transform="matrix(1,0,0,-1,137.20324,384.90075)"><tspan
           id="tspan3609"
           y="0"
           x="0 4.4317727 9.4134731 13.392364 16.944252 20.897263 24.999079">XDecode</tspan></text>
<g
         transform="matrix(1,0,0,-1,0,502.07043)"
         id="g3611"><path
           id="path3613"
           style="fill:none;stroke:#000000;stroke-width:0.27506199;stroke-linecap:butt;stroke-linejoin:miter;stroke-miterlimit:4;stroke-dasharray:none;stroke-opacity:1"
           d="m 126.797,119.031 48.09,0" /></g><g
         transform="matrix(1,0,0,-1,0,502.07043)"
         id="g3615"><path
           id="path3617"
           style="fill:none;stroke:#000000;stroke-width:0.80000001;stroke-linecap:butt;stroke-linejoin:miter;stroke-miterlimit:4;stroke-dasharray:none;stroke-opacity:1"
           d="m 175.543,133.543 38.855,0" /></g><g
         transform="matrix(-1,0,0,1,0,502.07043)"
         id="g3619"><path
           id="path3621"
           style="fill:#000000;fill-opacity:1;fill-rule:evenodd;stroke:#000000;stroke-width:0.80000001;stroke-linecap:butt;stroke-linejoin:miter;stroke-miterlimit:4;stroke-dasharray:none;stroke-opacity:1"
           d="m -206.398,-133.543 3.199,-3.199 -11.199,3.199 11.199,3.199 -3.199,-3.199 z" /></g><text
         id="text3623"
         style="font-variant:normal;font-weight:normal;font-size:10px;font-family:'DejaVu Sans';-inkscape-font-specification:DejaVuSans;writing-mode:lr-tb;fill:#000000;fill-opacity:1;fill-rule:nonzero;stroke:none"
         transform="matrix(1,0,0,-1,185.82813,375.13219)"><tspan
           id="tspan3625"
           y="0"
           x="0 5.1999998 11.35">set</tspan></text>
<g
         transform="translate(0,-0.929565)"
         id="g3627"><g
           id="g3629"><g
             clip-path="url(#clipPath3633)"
             id="g3631"><g
               id="g3637"><g
                 transform="matrix(1,0,0,-1,0,503)"
                 id="g3639"><path
                   id="path3641"
                   style="fill:#ffffff;fill-opacity:1;fill-rule:nonzero;stroke:#000000;stroke-width:0.80000001;stroke-linecap:round;stroke-linejoin:miter;stroke-miterlimit:4;stroke-dasharray:none;stroke-opacity:1"
                   d="m 203.324,167.371 68.957,0 0,17.531 -68.957,0 0,-17.531 z" /></g></g></g></g></g><text
         id="text3643"
         style="font-variant:normal;font-weight:normal;font-size:12px;font-family:'DejaVu Sans';-inkscape-font-specification:DejaVuSans;writing-mode:lr-tb;fill:#000000;fill-opacity:1;fill-rule:nonzero;stroke:none"
         transform="matrix(1,0,0,-1,218.71263,322.45887)"><tspan
           id="tspan3645"
           y="0"
           x="0 7.164 14.256 20.256001 26.844 31.548 36.515999">ex_ctrl</tspan></text>
<g
         transform="matrix(1,0,0,-1,0,502.07043)"
         id="g3647"><path
           id="path3649"
           style="fill:none;stroke:#000000;stroke-width:0.80000001;stroke-linecap:butt;stroke-linejoin:miter;stroke-miterlimit:4;stroke-dasharray:none;stroke-opacity:1"
           d="m 238.609,153.914 0,12.524" /></g><g
         transform="matrix(0,1,1,0,0,502.07043)"
         id="g3651"><path
           id="path3653"
           style="fill:#000000;fill-opacity:1;fill-rule:evenodd;stroke:#000000;stroke-width:0.80000001;stroke-linecap:butt;stroke-linejoin:miter;stroke-miterlimit:4;stroke-dasharray:none;stroke-opacity:1"
           d="m -158.438,238.609 3.2,-3.199 -11.2,3.199 11.2,3.2 -3.2,-3.2 z" /></g><g
         transform="translate(0,-0.929565)"
         id="g3655"><g
           id="g3657"><g
             clip-path="url(#clipPath3661)"
             id="g3659"><g
               id="g3665"><g
                 transform="matrix(1,0,0,-1,0,503)"
                 id="g3667"><path
                   id="path3669"
                   style="fill:#ffffff;fill-opacity:1;fill-rule:nonzero;stroke:#000000;stroke-width:0.80000001;stroke-linecap:round;stroke-linejoin:miter;stroke-miterlimit:4;stroke-dasharray:none;stroke-opacity:1"
                   d="m 203.324,253.348 68.957,0 0,17.531 -68.957,0 0,-17.531 z" /></g></g></g></g></g><text
         id="text3671"
         style="font-variant:normal;font-weight:normal;font-size:12px;font-family:'DejaVu Sans';-inkscape-font-specification:DejaVuSans;writing-mode:lr-tb;fill:#000000;fill-opacity:1;fill-rule:nonzero;stroke:none"
         transform="matrix(1,0,0,-1,218.71255,236.48015)"><tspan
           id="tspan3673"
           y="0"
           x="0 9.8039999 17.412001 23.412001 30 34.703999 39.672001">wb_ctrl</tspan></text>
<g
         transform="matrix(1,0,0,-1,0,502.07043)"
         id="g3675"><path
           id="path3677"
           style="fill:none;stroke:#000000;stroke-width:0.80000001;stroke-linecap:butt;stroke-linejoin:miter;stroke-miterlimit:4;stroke-dasharray:none;stroke-opacity:1"
           d="m 238,184.973 0,69.14" /></g><g
         transform="matrix(0,1,1,0,0,502.07043)"
         id="g3679"><path
           id="path3681"
           style="fill:#000000;fill-opacity:1;fill-rule:evenodd;stroke:#000000;stroke-width:0.80000001;stroke-linecap:butt;stroke-linejoin:miter;stroke-miterlimit:4;stroke-dasharray:none;stroke-opacity:1"
           d="m -246.113,238 3.199,-3.199 -11.199,3.199 11.199,3.199 -3.199,-3.199 z" /></g><g
         transform="translate(0,-0.929565)"
         id="g3683"><g
           id="g3685"><g
             clip-path="url(#clipPath3689)"
             id="g3687"><g
               id="g3693"><g
                 transform="matrix(1,0,0,-1,0,503)"
                 id="g3695"><path
                   id="path3697"
                   style="fill:none;stroke:#000000;stroke-width:0.64776999;stroke-linecap:round;stroke-linejoin:miter;stroke-miterlimit:4;stroke-dasharray:none;stroke-opacity:1"
                   d="m 297.465,310.039 261.867,0 0,191.707 -261.867,0 0,-191.707 z" /></g></g></g></g></g><g
         transform="matrix(1,0,0,-1,0,502.07043)"
         id="g3699"><path
           id="path3701"
           style="fill:none;stroke:#000000;stroke-width:0.80000001;stroke-linecap:butt;stroke-linejoin:miter;stroke-miterlimit:4;stroke-dasharray:none;stroke-opacity:1"
           d="m 297.543,339.828 260.57,0" /></g><text
         id="text3703"
         style="font-variant:normal;font-weight:normal;font-size:20px;font-family:'DejaVu Sans';-inkscape-font-specification:DejaVuSans;writing-mode:lr-tb;fill:#000000;fill-opacity:1;fill-rule:nonzero;stroke:none"
         transform="matrix(1,0,0,-1,347.94308,170.87899)"><tspan
           id="tspan3705"
           y="0"
           x="0 5.54 18.200001 28.6 36.439999 44.66 57.380001 68.360001 76.199997 81.739998 93.959999 106.62 117.02 123.42 133.82001 144.8 157.03999 162.58">instructions.scala</tspan></text>
<g
         transform="matrix(1,0,0,-1,0,502.07043)"
         id="g3707"><path
           id="path3709"
           style="fill:none;stroke:#000000;stroke-width:1.28318405;stroke-linecap:round;stroke-linejoin:miter;stroke-miterlimit:4;stroke-dasharray:none;stroke-opacity:1"
           d="m 336.875,350.527 213.066,0 0,102.957 -213.066,0 0,-102.957 z" /></g><text
         y="-135.85309"
         x="395.48077"
         id="text3711"
         style="font-variant:normal;font-weight:normal;font-size:16px;font-family:'DejaVu Sans';-inkscape-font-specification:DejaVuSans;writing-mode:lr-tb;fill:#000000;fill-opacity:1;fill-rule:nonzero;stroke:none"
         transform="scale(1,-1)"><tspan
           id="tspan3713"
           y="-135.85309"
           x="395.48077 400.18475 410.31277 418.63275 424.90475 431.52875 441.65677 450.44077 456.71277 461.14478 470.92078 481.04877">Instructions</tspan></text>
<g
         transform="matrix(1,0,0,-1,0,502.07043)"
         id="g3715"><path
           id="path3717"
           style="fill:none;stroke:#000000;stroke-width:0.90834898;stroke-linecap:butt;stroke-linejoin:miter;stroke-miterlimit:4;stroke-dasharray:none;stroke-opacity:1"
           d="m 336.637,370.895 212.535,0" /></g><g
         transform="translate(0,-0.929565)"
         id="g3719"><g
           id="g3721"><g
             clip-path="url(#clipPath3725)"
             id="g3723"><g
               id="g3729"><g
                 transform="matrix(1,0,0,-1,0,503)"
                 id="g3731"><path
                   id="path3733"
                   style="fill:none;stroke:#000000;stroke-width:1.647282;stroke-linecap:round;stroke-linejoin:miter;stroke-miterlimit:4;stroke-dasharray:1.647282, 3.294563;stroke-dashoffset:0;stroke-opacity:1"
                   d="m 350.898,207.27 70.672,0 0,59.355 -70.672,0 0,-59.355 z" /></g></g></g></g></g><g
         transform="matrix(1,0,0,-1,0,502.07043)"
         id="g3735"><path
           id="path3737"
           style="fill:none;stroke:#000000;stroke-width:0.80000001;stroke-linecap:butt;stroke-linejoin:miter;stroke-miterlimit:4;stroke-dasharray:none;stroke-opacity:1"
           d="m 355.258,237.543 -38.285,0 0,177.145 21.14,0" /></g><g
         transform="matrix(-1,0,0,1,0,502.07043)"
         id="g3739"><path
           id="path3741"
           style="fill:#000000;fill-opacity:1;fill-rule:evenodd;stroke:#000000;stroke-width:0.80000001;stroke-linecap:butt;stroke-linejoin:miter;stroke-miterlimit:4;stroke-dasharray:none;stroke-opacity:1"
           d="m -330.113,-414.688 3.199,-3.199 -11.199,3.199 11.199,3.204 -3.199,-3.204 z" /></g><text
         id="text3743"
         style="font-variant:normal;font-weight:normal;font-size:10px;font-family:'DejaVu Sans';-inkscape-font-specification:DejaVuSans;writing-mode:lr-tb;fill:#000000;fill-opacity:1;fill-rule:nonzero;stroke:none"
         transform="matrix(1,0,0,-1,339.25647,84.776034)"><tspan
           id="tspan3745"
           y="0"
           x="0 6.8400002 14.54 22.24 27.24 34.080002 40.110001 46.139999 53.080002 60.299999 67.150002 70.32">ADD_APPROX =</tspan></text>
<g
         transform="translate(0,-0.929565)"
         id="g3747"><g
           id="g3749"><g
             clip-path="url(#clipPath3753)"
             id="g3751"><g
               id="g3757"><g
                 transform="matrix(1,0,0,-1,0,503)"
                 id="g3759"><path
                   id="path3761"
                   style="fill:#ffffff;fill-opacity:1;fill-rule:nonzero;stroke:#000000;stroke-width:0.66715598;stroke-linecap:round;stroke-linejoin:miter;stroke-miterlimit:4;stroke-dasharray:none;stroke-opacity:1"
                   d="m 419.906,406.836 127.816,0 0,14.68 -127.816,0 0,-14.68 z" /></g></g></g></g></g><text
         id="text3763"
         style="font-variant:normal;font-weight:normal;font-size:8px;font-family:'DejaVu Sans';-inkscape-font-specification:DejaVuSans;writing-mode:lr-tb;fill:#000000;fill-opacity:1;fill-rule:nonzero;stroke:none"
         transform="matrix(1,0,0,-1,518.56387,99.541819)"><tspan
           id="tspan3765"
           y="0"
           x="0 4.888 9.96 14.352 19.24 24.312">opcode</tspan></text>
<g
         transform="matrix(1,0,0,-1,0,502.07043)"
         id="g3767"><path
           id="path3769"
           style="fill:none;stroke:#000000;stroke-width:0.80000001;stroke-linecap:butt;stroke-linejoin:miter;stroke-miterlimit:4;stroke-dasharray:none;stroke-opacity:1"
           d="m 515.734,400.969 0,20.203" /></g><text
         id="text3771"
         style="font-variant:normal;font-weight:normal;font-size:8px;font-family:'DejaVu Sans';-inkscape-font-specification:DejaVuSans;writing-mode:lr-tb;fill:#000000;fill-opacity:1;fill-rule:nonzero;stroke:none"
         transform="matrix(1,0,0,-1,503.51905,99.297289)"><tspan
           id="tspan3773"
           y="0"
           x="0 3.152">rd</tspan></text>
<g
         transform="matrix(1,0,0,-1,0,502.07043)"
         id="g3775"><path
           id="path3777"
           style="fill:none;stroke:#000000;stroke-width:0.80000001;stroke-linecap:butt;stroke-linejoin:miter;stroke-miterlimit:4;stroke-dasharray:none;stroke-opacity:1"
           d="m 498.766,400.969 0,20.203" /></g><text
         id="text3779"
         style="font-variant:normal;font-weight:normal;font-size:8px;font-family:'DejaVu Sans';-inkscape-font-specification:DejaVuSans;writing-mode:lr-tb;fill:#000000;fill-opacity:1;fill-rule:nonzero;stroke:none"
         transform="matrix(1,0,0,-1,469.47364,99.542016)"><tspan
           id="tspan3781"
           y="0"
           x="0 2.816 7.8800001 12.944 17.336 20.496">funct3</tspan></text>
<g
         transform="matrix(1,0,0,-1,0,502.07043)"
         id="g3783"><path
           id="path3785"
           style="fill:none;stroke:#000000;stroke-width:0.80000001;stroke-linecap:butt;stroke-linejoin:miter;stroke-miterlimit:4;stroke-dasharray:none;stroke-opacity:1"
           d="m 468.398,401.555 0,20.203" /></g><g
         transform="matrix(1,0,0,-1,0,502.07043)"
         id="g3787"><path
           id="path3789"
           style="fill:none;stroke:#000000;stroke-width:0.80000001;stroke-linecap:butt;stroke-linejoin:miter;stroke-miterlimit:4;stroke-dasharray:none;stroke-opacity:1"
           d="m 452.973,401.555 0,20.203" /></g><text
         id="text3791"
         style="font-variant:normal;font-weight:normal;font-size:6px;font-family:'DejaVu Sans';-inkscape-font-specification:DejaVuSans;writing-mode:lr-tb;fill:#000000;fill-opacity:1;fill-rule:nonzero;stroke:none"
         transform="matrix(1,0,0,-1,518.61651,86.199735)"><tspan
           id="tspan3793"
           y="0"
           x="0 3.816 7.632 11.448 15.264 19.08 22.914">0001011</tspan><tspan
           id="tspan3795"
           y="-0.02945118"
           x="-41.107037 -37.291039 -33.475037">000</tspan><tspan
           id="tspan3797"
           y="0.25626403"
           x="-15.944052 -12.764052 -9.5840521 -60.470051 -58.56805 -56.666054">???...</tspan></text>
<text
         id="text3799"
         style="font-variant:normal;font-weight:normal;font-size:8px;font-family:'DejaVu Sans';-inkscape-font-specification:DejaVuSans;writing-mode:lr-tb;fill:#000000;fill-opacity:1;fill-rule:nonzero;stroke:none"
         transform="matrix(1,0,0,-1,456.87247,99.435688)"><tspan
           id="tspan3801"
           y="0"
           x="0 2.536 5.072">...</tspan></text>
<text
         id="text3803"
         style="font-variant:normal;font-weight:normal;font-size:6px;font-family:'DejaVu Sans';-inkscape-font-specification:DejaVuSans;writing-mode:lr-tb;fill:#000000;fill-opacity:1;fill-rule:nonzero;stroke:none"
         transform="matrix(1,0,0,-1,432.51064,85.584053)"><tspan
           id="tspan3805"
           y="0"
           x="0 1.902 3.8039999">...</tspan></text>
<text
         id="text3807"
         style="font-variant:normal;font-weight:normal;font-size:8px;font-family:'DejaVu Sans';-inkscape-font-specification:DejaVuSans;writing-mode:lr-tb;fill:#000000;fill-opacity:1;fill-rule:nonzero;stroke:none"
         transform="matrix(1,0,0,-1,432.5284,99.488603)"><tspan
           id="tspan3809"
           y="0"
           x="0 2.536 5.072">...</tspan></text>
<text
         id="text3811"
         style="font-variant:normal;font-weight:normal;font-size:10px;font-family:'DejaVu Sans';-inkscape-font-specification:DejaVuSans;writing-mode:lr-tb;fill:#000000;fill-opacity:1;fill-rule:nonzero;stroke:none"
         transform="matrix(1,0,0,-1,338.81826,56.26768)"><tspan
           id="tspan3813"
           y="0"
           x="0 6.3400002 13.65 20.51 25.51 32.349998 38.380001 44.41 51.349998 58.59 65.440002 68.610001">SUB_APPROX =</tspan></text>
<g
         transform="translate(0,-0.929565)"
         id="g3815"><g
           id="g3817"><g
             clip-path="url(#clipPath3821)"
             id="g3819"><g
               id="g3825"><g
                 transform="matrix(1,0,0,-1,0,503)"
                 id="g3827"><path
                   id="path3829"
                   style="fill:#ffffff;fill-opacity:1;fill-rule:nonzero;stroke:#000000;stroke-width:0.66715598;stroke-linecap:round;stroke-linejoin:miter;stroke-miterlimit:4;stroke-dasharray:none;stroke-opacity:1"
                   d="m 419.469,435.344 127.816,0 0,14.68 -127.816,0 0,-14.68 z" /></g></g></g></g></g><text
         id="text3831"
         style="font-variant:normal;font-weight:normal;font-size:8px;font-family:'DejaVu Sans';-inkscape-font-specification:DejaVuSans;writing-mode:lr-tb;fill:#000000;fill-opacity:1;fill-rule:nonzero;stroke:none"
         transform="matrix(1,0,0,-1,518.12566,71.033468)"><tspan
           id="tspan3833"
           y="0"
           x="0 4.888 9.96 14.352 19.24 24.312">opcode</tspan></text>
<g
         transform="matrix(1,0,0,-1,0,502.07043)"
         id="g3835"><path
           id="path3837"
           style="fill:none;stroke:#000000;stroke-width:0.80000001;stroke-linecap:butt;stroke-linejoin:miter;stroke-miterlimit:4;stroke-dasharray:none;stroke-opacity:1"
           d="m 515.297,429.48 0,20.2" /></g><text
         id="text3839"
         style="font-variant:normal;font-weight:normal;font-size:8px;font-family:'DejaVu Sans';-inkscape-font-specification:DejaVuSans;writing-mode:lr-tb;fill:#000000;fill-opacity:1;fill-rule:nonzero;stroke:none"
         transform="matrix(1,0,0,-1,503.08084,70.788932)"><tspan
           id="tspan3841"
           y="0"
           x="0 3.152">rd</tspan></text>
<g
         transform="matrix(1,0,0,-1,0,502.07043)"
         id="g3843"><path
           id="path3845"
           style="fill:none;stroke:#000000;stroke-width:0.80000001;stroke-linecap:butt;stroke-linejoin:miter;stroke-miterlimit:4;stroke-dasharray:none;stroke-opacity:1"
           d="m 498.328,429.48 0,20.2" /></g><text
         id="text3847"
         style="font-variant:normal;font-weight:normal;font-size:8px;font-family:'DejaVu Sans';-inkscape-font-specification:DejaVuSans;writing-mode:lr-tb;fill:#000000;fill-opacity:1;fill-rule:nonzero;stroke:none"
         transform="matrix(1,0,0,-1,469.03544,71.03366)"><tspan
           id="tspan3849"
           y="0"
           x="0 2.816 7.8800001 12.944 17.336 20.496">funct3</tspan></text>
<g
         transform="matrix(1,0,0,-1,0,502.07043)"
         id="g3851"><path
           id="path3853"
           style="fill:none;stroke:#000000;stroke-width:0.80000001;stroke-linecap:butt;stroke-linejoin:miter;stroke-miterlimit:4;stroke-dasharray:none;stroke-opacity:1"
           d="m 467.961,430.062 0,20.204" /></g><g
         transform="matrix(1,0,0,-1,0,502.07043)"
         id="g3855"><path
           id="path3857"
           style="fill:none;stroke:#000000;stroke-width:0.80000001;stroke-linecap:butt;stroke-linejoin:miter;stroke-miterlimit:4;stroke-dasharray:none;stroke-opacity:1"
           d="m 452.535,430.062 0,20.204" /></g><text
         id="text3859"
         style="font-variant:normal;font-weight:normal;font-size:6px;font-family:'DejaVu Sans';-inkscape-font-specification:DejaVuSans;writing-mode:lr-tb;fill:#000000;fill-opacity:1;fill-rule:nonzero;stroke:none"
         transform="matrix(1,0,0,-1,518.1783,57.691382)"><tspan
           id="tspan3861"
           y="0"
           x="0 3.816 7.632 11.448 15.264 19.08 22.914">0001011</tspan><tspan
           id="tspan3863"
           y="-0.029448001"
           x="-41.107037 -37.291039 -33.475037">001</tspan><tspan
           id="tspan3865"
           y="0.25626421"
           x="-15.944052 -12.764052 -9.5840521 -60.470051 -58.56805 -56.666054">???...</tspan></text>
<text
         id="text3867"
         style="font-variant:normal;font-weight:normal;font-size:8px;font-family:'DejaVu Sans';-inkscape-font-specification:DejaVuSans;writing-mode:lr-tb;fill:#000000;fill-opacity:1;fill-rule:nonzero;stroke:none"
         transform="matrix(1,0,0,-1,456.43426,70.927332)"><tspan
           id="tspan3869"
           y="0"
           x="0 2.536 5.072">...</tspan></text>
<text
         id="text3871"
         style="font-variant:normal;font-weight:normal;font-size:6px;font-family:'DejaVu Sans';-inkscape-font-specification:DejaVuSans;writing-mode:lr-tb;fill:#000000;fill-opacity:1;fill-rule:nonzero;stroke:none"
         transform="matrix(1,0,0,-1,432.07243,57.075702)"><tspan
           id="tspan3873"
           y="0"
           x="0 1.902 3.8039999">...</tspan></text>
<text
         id="text3875"
         style="font-variant:normal;font-weight:normal;font-size:8px;font-family:'DejaVu Sans';-inkscape-font-specification:DejaVuSans;writing-mode:lr-tb;fill:#000000;fill-opacity:1;fill-rule:nonzero;stroke:none"
         transform="matrix(1,0,0,-1,432.0902,70.980252)"><tspan
           id="tspan3877"
           y="0"
           x="0 2.536 5.072">...</tspan></text>
<text
         id="text3879"
         style="font-variant:normal;font-weight:normal;font-size:16px;font-family:'DejaVu Sans';-inkscape-font-specification:DejaVuSans;writing-mode:lr-tb;fill:#000000;fill-opacity:1;fill-rule:nonzero;stroke:none"
         transform="matrix(1,0,0,-1,352.85669,35.780267)"><tspan
           id="tspan3881"
           y="0"
           x="0 5.072 10.144">...</tspan></text>
<text
         id="text3883"
         style="font-variant:normal;font-weight:normal;font-size:14px;font-family:'DejaVu Sans';-inkscape-font-specification:DejaVuSans;writing-mode:lr-tb;fill:#000000;fill-opacity:1;fill-rule:nonzero;stroke:none"
         transform="matrix(1,0,0,-1,449.06498,113.18167)"><tspan
           id="tspan3885"
           y="0"
           x="0 9.6040001 13.482 18.969999 27.846001 36.414001 41.902 47.389999 56 61.529999">Bitpattern</tspan><tspan
           id="tspan3887"
           y="0.8005746"
           x="-104.07296 -93.60096 -85.032959 -71.396965">Name</tspan></text>
<g
         transform="matrix(1,0,0,-1,0,502.07043)"
         id="g3889"><path
           id="path3891"
           style="fill:none;stroke:#000000;stroke-width:0.385867;stroke-linecap:round;stroke-linejoin:miter;stroke-miterlimit:4;stroke-dasharray:none;stroke-opacity:1"
           d="m 41.715,117.352 55.797,0 0,35.551 -55.797,0 0,-35.551 z" /></g><text
         id="text3893"
         style="font-variant:normal;font-weight:normal;font-size:5.51605797px;font-family:'DejaVu Sans';-inkscape-font-specification:DejaVuSans;writing-mode:lr-tb;fill:#000000;fill-opacity:1;fill-rule:nonzero;stroke:none"
         transform="matrix(1,0,0,-1,54.122169,379.28216)"><tspan
           id="tspan3895"
           y="0"
           x="0 1.621721 5.1133857 7.9817357 10.144031 12.427679 15.919343 18.947659 21.109955 22.637901 26.008213 29.499878">Instructions</tspan></text>
<g
         transform="matrix(1,0,0,-1,0,502.07043)"
         id="g3897"><path
           id="path3899"
           style="fill:none;stroke:#000000;stroke-width:0.27128199;stroke-linecap:butt;stroke-linejoin:miter;stroke-miterlimit:4;stroke-dasharray:none;stroke-opacity:1"
           d="m 41.66,124.398 54.985,0" /></g><text
         id="text3901"
         style="font-variant:normal;font-weight:normal;font-size:8px;font-family:'DejaVu Sans';-inkscape-font-specification:DejaVuSans;writing-mode:lr-tb;fill:#000000;fill-opacity:1;fill-rule:nonzero;stroke:none"
         transform="matrix(1,0,0,-1,56.11495,393.98239)"><tspan
           id="tspan3903"
           y="0"
           x="0 5.4879999 7.704 10.84">Bits</tspan></text>
<g
         transform="matrix(1,0,0,-1,0,502.07043)"
         id="g3905"><path
           id="path3907"
           style="fill:none;stroke:#000000;stroke-width:0.80000001;stroke-linecap:butt;stroke-linejoin:miter;stroke-miterlimit:4;stroke-dasharray:none;stroke-opacity:1"
           d="m 97.543,135.543 28.855,0" /></g><g
         transform="matrix(-1,0,0,1,0,502.07043)"
         id="g3909"><path
           id="path3911"
           style="fill:#000000;fill-opacity:1;fill-rule:evenodd;stroke:#000000;stroke-width:0.80000001;stroke-linecap:butt;stroke-linejoin:miter;stroke-miterlimit:4;stroke-dasharray:none;stroke-opacity:1"
           d="m -118.398,-135.543 3.199,-3.199 -11.199,3.199 11.199,3.199 -3.199,-3.199 z" /></g><text
         id="text3913"
         style="font-variant:normal;font-weight:normal;font-size:8px;font-family:'DejaVu Sans';-inkscape-font-specification:DejaVuSans;writing-mode:lr-tb;fill:#000000;fill-opacity:1;fill-rule:nonzero;stroke:none"
         transform="matrix(1,0,0,-1,99.34251,373.65017)"><tspan
           id="tspan3915"
           y="0"
           x="0 5.9840002 10.88 18.672001">Name</tspan></text>
<path
         id="path3917"
         d="m 238.27871,231.19179 0,-24.09561"
         style="fill:none;fill-rule:evenodd;stroke:#000000;stroke-width:0.80000001px;stroke-linecap:butt;stroke-linejoin:miter;stroke-opacity:1" /></g></g></svg>